<svg width="48" height="48" viewBox="0 0 48 48" fill="none"
  xmlns="http://www.w3.org/2000/svg">
  <path d="M24.02 47.96C16.2864 47.96 8.53289 47.96 0.799334 47.98C0.199833 47.98 0 47.8599 0 47.2193C0.0199833 31.7264 0.0199833 16.2135 0 0.7206C0 0.100083 0.199834 0 0.759368 0C16.2465 0.0200167 31.7136 0.0200167 47.2007 0C47.9001 0 48 0.200166 48 0.8407C47.98 16.2936 47.98 31.7465 48 47.1993C48 47.8999 47.8002 48 47.1607 48C39.4471 47.9399 31.7336 47.96 24.02 47.96Z" fill="#403432"/>
  <path d="M33.3322 25.9416C33.4121 26.7023 32.8126 26.9625 32.313 27.1226C31.6336 27.3428 31.0141 27.8832 30.1948 27.6631C29.955 27.603 29.7352 27.8832 29.7751 28.1635C29.8151 28.4037 29.7551 28.6038 29.7352 28.824C29.3555 28.8641 29.1956 28.5238 28.9558 28.4437C29.6352 29.0642 30.1348 29.8649 30.6144 30.7056C31.1939 31.7064 31.8734 32.6472 33.0524 33.1276C33.0924 32.8274 32.7926 32.6872 32.8526 32.447C33.3122 32.5071 34.0716 33.2477 34.0716 33.6481C34.0716 33.7882 34.0316 33.9683 33.9117 33.9483C33.3122 33.8282 32.7127 34.1885 32.1332 33.9683C30.6744 33.4279 29.1756 33.1076 27.7368 32.4671C25.7385 31.5863 23.88 30.5054 21.9816 29.4646C19.9633 28.3636 17.985 27.2227 15.7668 26.5421C15.1873 26.362 14.5478 26.342 13.9483 26.2619C13.8084 26.2419 13.6286 26.2419 13.5686 26.1018C13.4887 25.9216 13.6486 25.8215 13.7685 25.7415C14.288 25.4212 14.5878 24.8207 15.2872 24.7406C15.567 24.7006 15.6469 24.2402 15.7268 24C16.0066 23.1393 16.6061 22.4787 17.1457 21.8182C17.6852 21.1576 18.0849 20.5171 17.945 19.6564C17.8651 19.0959 18.2847 18.3553 17.7851 17.955C17.0258 17.3545 16.8259 16.4337 16.5861 15.6931C16.2064 14.5321 15.1673 13.4512 15.6669 12.0901C15.9267 11.3695 16.1265 10.729 16.0666 9.90827C16.0266 9.24772 16.5462 8.52712 16.9458 7.9066C17.0457 7.74646 16.8459 7.20602 17.3855 7.36615C17.4654 7.46623 17.5653 7.5463 17.6053 7.68642C17.6253 7.7865 17.6253 7.88658 17.6053 7.98667C17.5653 8.1468 17.5253 8.30693 17.4254 8.44705C17.4054 8.48708 17.3655 8.52712 17.3455 8.56715C17.2855 8.70727 17.0457 8.78733 17.2256 8.9875C17.2456 9.00752 17.4454 9.2277 17.3455 8.92745C17.3255 8.84738 17.3855 8.7473 17.4254 8.64722C17.4454 8.58717 17.4854 8.52712 17.5453 8.46707C17.7651 8.34697 18.0249 8.36698 18.2647 8.34697C18.9641 8.28692 19.0041 8.32695 18.7443 8.9875C18.5245 9.56798 19.104 9.72812 19.2839 10.0884C19.5636 10.5888 20.0832 10.1685 20.4429 10.4087C20.6827 10.5688 20.7227 10.809 20.7427 11.0692C20.2031 11.3895 20.303 11.7698 20.6228 12.1902C20.7427 12.3503 20.8226 12.5305 20.7826 12.7306C20.7626 12.7907 20.7427 12.8707 20.7027 12.9308C20.383 13.0309 20.0233 13.0909 20.1432 13.5713C20.0033 13.6714 19.8434 13.7315 19.6636 13.7515C19.6036 13.7515 19.5237 13.7515 19.4637 13.7114C19.2239 13.6114 19.164 13.2911 18.9042 13.2511C18.7443 13.211 18.5845 13.231 18.4246 13.2511C18.3447 13.2511 18.2847 13.231 18.2048 13.231C18.0449 13.231 17.985 12.8507 17.8051 13.0709C17.6053 13.3111 17.8651 13.3912 18.0249 13.4913C18.3247 13.6914 18.5045 13.9316 18.1848 14.2719C18.1248 14.3119 18.0649 14.332 18.0049 14.352C17.905 14.372 17.8051 14.352 17.7252 14.3119C17.6852 14.3119 17.6652 14.2919 17.6253 14.2519C17.6053 14.352 17.7052 14.2919 17.7252 14.332C17.905 14.432 18.0849 14.4721 18.2847 14.4721C18.5245 14.5121 18.8043 14.4521 18.9242 14.7723C18.7443 15.0125 18.4845 14.8324 18.3447 14.8724C18.1848 14.8524 18.3047 15.0325 18.2847 14.9325C18.2647 14.9124 18.3047 14.8924 18.3447 14.8924C18.6644 14.9325 18.6644 14.9325 18.6444 15.2127C18.5645 15.3328 18.4446 15.4529 18.6044 15.573C18.6644 15.613 18.7443 15.573 18.8043 15.573C18.7443 15.4729 18.5645 15.4729 18.5445 15.3128C18.6644 15.1126 18.9242 15.1126 19.0441 14.9124C19.144 14.7923 19.184 14.6522 19.2439 14.5121C19.2839 14.432 19.3438 14.352 19.4238 14.2919C19.4637 14.2519 19.5237 14.2119 19.5636 14.1718C19.6835 14.0717 19.8234 13.9516 20.0033 13.9917C20.2431 14.0717 20.303 14.5722 20.6827 14.2719C20.8825 14.2919 21.0024 14.392 21.0824 14.5722C21.1623 14.8124 21.0824 15.0526 21.0824 15.2928C21.0824 15.3528 21.0824 15.4329 21.0624 15.4929C20.9825 15.9533 21.1024 16.3536 21.4021 16.6939C22.3413 17.4546 23.2406 18.2752 24.5595 18.2352C24.6194 18.2752 24.6594 18.3353 24.6994 18.3953C24.7793 18.5755 24.8592 18.7757 24.7593 18.9558C24.6594 19.1159 24.4795 19.2561 24.6794 19.4762C24.8792 19.6764 25.119 19.6964 25.3588 19.6364C25.6785 19.5363 25.9183 19.3361 26.1981 19.176C27.0974 18.6355 27.6369 18.8157 28.0566 19.7965C28.0366 19.8966 27.9766 20.0167 27.8767 19.9967C26.8376 19.7164 26.0582 20.437 25.159 20.7173C25.099 20.7573 24.9591 20.7773 24.9591 20.7973C24.9791 20.8974 25.099 20.8574 25.159 20.9174C25.6186 21.1777 26.1382 21.0776 26.6977 21.1176C26.338 20.8574 26.298 20.5972 26.5978 20.357C26.8975 20.1168 27.4171 20.2369 27.6569 20.5772C27.9566 21.0375 27.7768 21.4179 27.0374 21.9383C27.3571 22.1385 27.7168 22.2586 28.0965 22.3186C28.3963 22.3586 28.696 22.4587 28.696 22.8591C28.676 22.9591 28.5761 22.9992 28.5362 23.0993C28.6161 23.0792 28.6561 23.0392 28.716 22.9792C28.9158 22.7189 28.8359 22.3987 28.9758 22.1385C29.0357 22.0384 29.1157 21.9783 29.2356 21.9783C29.875 22.4387 29.8551 23.1793 29.2156 23.5997C28.9758 23.7398 28.716 23.8199 28.4362 23.8799C28.2164 23.9199 28.0566 24.0601 28.0765 24.2802C28.1165 24.5405 28.3363 24.5405 28.5362 24.5405C28.8359 24.5204 29.1157 24.4204 29.4154 24.4404C29.7152 24.4604 30.0549 24.4804 30.1348 24.8407C30.2148 25.181 29.935 25.3211 29.6752 25.4412C29.4554 25.5413 29.2556 25.6814 28.9158 25.7615C29.3155 25.9416 29.5153 26.1818 29.4554 26.5822C29.4354 26.6422 29.4154 26.7223 29.3755 26.7823C29.4154 26.8023 29.4354 26.7823 29.4754 26.7223C29.5353 26.6022 29.5553 26.4821 29.5153 26.362C29.4754 26.1418 29.2556 25.8415 29.4754 25.7415C29.7551 25.6214 29.895 25.3011 30.2148 25.2811C30.5345 25.2611 30.8542 25.3011 30.8342 25.7214C30.8143 26.0017 30.8342 26.2219 31.134 26.3219C31.4537 26.8023 31.8934 26.5421 32.293 26.4621C32.4129 26.442 32.4729 26.3219 32.5528 26.2419C32.6527 26.1218 32.7327 26.0017 32.8126 25.8616C32.8526 25.8015 32.9125 25.7815 32.9725 25.7615C33.1124 25.7415 33.2123 25.8015 33.3122 25.9016C33.2922 25.8816 33.3122 25.9216 33.3322 25.9416Z" fill="#201A16"/>
  <path d="M19.104 10.1885C18.8443 10.0083 18.7843 9.608 18.3647 9.62802C18.1249 9.62802 18.2248 9.42785 18.3247 9.30775C18.5245 9.04754 18.4846 8.66722 18.8642 8.46705C18.3647 8.54712 17.905 8.5271 17.4654 8.54712C17.4254 8.50709 17.4055 8.46705 17.4254 8.42702C17.4254 8.38699 17.4254 8.36697 17.4454 8.36697C17.5254 8.22685 17.6453 8.10675 17.7851 8.02669C17.985 7.8065 18.3846 7.76647 18.4046 7.34612C18.3647 7.10592 18.1848 7.16597 18.0249 7.14595C17.8651 7.10592 17.7252 6.8457 17.945 6.80567C18.5245 6.70559 18.4646 5.96497 19.0041 5.86489C20.1032 5.0442 21.1224 4.18349 22.6611 4.14345C23.6802 4.12344 24.6594 4.18349 25.6786 4.24354C25.9583 4.26355 26.1582 4.3236 26.298 4.58382C26.338 4.6839 26.358 4.78399 26.378 4.88407C26.418 5.02419 26.338 5.20434 26.4979 5.32444C26.6777 5.22435 26.5179 5.00417 26.6777 4.90408C26.7377 4.88407 26.8176 4.86405 26.8975 4.86405C27.2772 4.9241 27.6569 4.90408 27.9966 5.10425C28.0766 5.1643 28.1765 5.22435 28.2564 5.2844C28.5362 5.5246 28.3563 5.68474 28.1965 5.86489C28.1365 5.92494 28.0766 5.98499 28.0366 6.06505C28.0366 6.2452 28.1965 6.3653 28.1965 6.54545C28.1765 6.58549 28.1765 6.64554 28.2164 6.68557C28.2564 6.66555 28.2964 6.62552 28.3364 6.58549C29.1757 6.08507 29.6353 6.18515 30.5345 7.02585C30.9742 7.8065 30.8742 8.08674 30.1548 8.30692C29.935 8.0467 30.0549 7.60634 29.6752 7.4462C29.6353 7.4462 29.5953 7.42619 29.5753 7.38615C29.5553 7.48624 29.6752 7.40617 29.6952 7.46622C29.8551 7.64637 30.0749 7.78649 29.995 8.06672C29.935 8.26689 30.0549 8.32694 30.2148 8.34695C30.6145 8.56714 30.7144 9.00751 30.9542 9.34779C31.0741 9.66806 30.9941 10.0284 31.134 10.3486C31.2739 10.6689 31.3139 11.0092 31.4937 11.3294C31.6536 11.6097 31.6536 11.97 31.4138 12.2302C31.174 12.5104 30.8742 12.3703 30.5745 12.2902C30.0549 12.1501 29.5553 11.8299 28.9958 12.1501C28.776 12.1902 28.6161 12.3303 28.3164 12.5304C28.5961 12.3703 28.736 12.2102 28.9359 12.1902C29.0957 12.1301 29.2356 12.01 29.4354 12.05C29.6353 12.0701 29.7352 12.2102 29.7951 12.3903C29.8351 12.5705 29.7552 12.6706 29.6153 12.7506C29.3755 12.8907 29.1357 13.0108 28.9159 13.171C28.5162 13.3912 28.1165 13.4712 27.7568 13.1309C27.3971 12.7907 27.4771 12.3503 27.6769 11.97C27.8767 11.5696 27.8368 11.0892 28.0766 10.7089C28.0966 10.6689 28.1565 10.6289 28.1365 10.6088C28.0966 10.5088 27.9966 10.5888 27.9367 10.5888C27.597 10.4087 27.3372 10.6889 27.0374 10.7289C26.6977 10.6489 26.6977 11.0492 26.4779 11.1293C26.2581 11.4295 26.0383 11.5496 25.8584 11.0892C25.7385 10.749 25.4787 10.4487 25.5187 10.0484C25.5387 9.64804 25.2989 10.0484 25.199 9.98832C25.0791 9.98832 24.9991 9.92827 24.9392 9.82819C24.9192 9.74812 24.9192 9.68807 24.9392 9.608C25.0591 9.28774 25.4188 9.18765 25.5787 8.92744C25.6786 8.7673 26.0583 8.54712 25.4787 8.50709C25.3189 8.48707 25.139 8.34695 24.9792 8.14679C25.159 8.48707 25.6786 8.5271 25.4987 9.0075C25.3189 9.14762 25.0191 9.16764 24.9392 9.42785C24.8992 9.46789 24.8592 9.50792 24.7993 9.52794C24.5995 9.50792 24.6394 9.7281 24.5395 9.80817C24.2997 9.9683 24.1798 10.2485 23.98 10.4487C23.7602 10.6088 23.5004 10.6689 23.3605 10.9691C23.2406 11.2294 22.9608 11.3294 22.721 11.2294C22.4013 11.0892 22.3413 11.3695 22.1815 11.4696C22.1615 11.5096 22.0816 11.3895 22.0616 11.4896C22.0616 11.5897 22.0216 11.4495 22.1215 11.4896C22.1815 11.5096 22.2015 11.5496 22.2015 11.6097C22.1615 11.8299 22.3813 11.99 22.3613 12.2102C22.0016 12.8907 21.2023 13.1309 20.6627 12.7106C20.5628 12.5104 20.6028 12.2302 20.323 12.1101C19.6436 11.8499 20.4629 11.3895 20.2031 11.0692C20.363 10.9491 20.403 11.2494 20.5428 11.1893C20.5628 11.1893 20.5828 11.1693 20.6028 11.1693C20.6228 11.1493 20.6028 11.1293 20.6028 11.0892C20.6428 10.4287 20.323 9.9683 19.8634 9.50792C19.7835 9.76814 19.5836 9.92827 19.4438 10.1084C19.3039 10.1685 19.2239 10.2285 19.104 10.1885Z" fill="#FEFEFE"/>
  <path d="M19.8834 42.7756C20.8826 41.3945 21.8618 40.0534 22.841 38.7123C22.9009 38.7323 22.9609 38.7523 23.0208 38.7723C23.0208 40.4937 23.0208 42.2152 23.0208 43.9566C22.781 43.9566 22.4213 43.9566 22.0616 43.9566C22.3814 42.8557 22.1216 41.7348 22.0416 40.5338C21.2623 41.6747 20.463 42.8157 19.6436 44.0167C18.8843 42.8557 18.1649 41.7548 17.4455 40.6539C17.3855 41.7748 17.1657 42.8757 17.4854 43.9766C17.2257 44.0567 16.9659 44.0767 16.7261 43.9766C16.9659 42.2152 16.766 40.4537 16.8859 38.5321C17.9451 39.9933 18.9242 41.3745 19.8834 42.7756Z" fill="#FCFCFC"/>
  <path d="M27.597 38.372C29.3156 38.392 30.5545 39.613 30.5346 41.2544C30.5146 42.8957 29.1757 44.1368 27.4571 44.1168C25.6786 44.0967 24.4596 42.8958 24.4796 41.1943C24.4996 39.553 25.8385 38.352 27.597 38.372Z" fill="#FCFBFC"/>
  <path d="M32.1132 13.6514C32.5129 14.412 32.9126 15.1727 33.3122 15.9333C33.552 16.1735 33.552 16.4537 33.3122 16.6539C33.0524 16.8741 32.8126 16.6939 32.5928 16.5138C32.5129 16.4537 32.4729 16.3536 32.393 16.2936C32.1932 16.1134 32.2131 15.633 31.7735 15.8132C31.3339 15.9733 30.8942 16.1335 30.8343 16.734C30.7743 17.4145 30.6345 17.4546 29.975 17.1743C29.6353 16.6939 29.2356 16.3336 28.6761 16.1335C28.3963 16.0334 28.1565 15.8732 27.9967 15.593C27.8768 15.2527 27.8768 14.8724 27.7369 14.5321C27.7369 14.4521 27.7768 14.392 27.8368 14.332C28.0566 14.2119 28.2764 14.2119 28.5162 14.2319C28.796 14.2919 29.0758 14.372 29.3555 14.352C29.5154 14.2319 29.9151 14.5521 29.8551 14.0717C29.8751 13.9717 29.9151 13.8916 29.955 13.7915C30.0549 13.5713 29.995 13.151 30.3547 13.231C30.6944 13.2911 30.6944 13.6514 30.6544 13.9717C30.6544 14.0117 30.6345 14.0717 30.6345 14.1118C30.6145 14.1918 30.5945 14.2519 30.5345 14.3119C30.5745 14.3119 30.6145 14.2919 30.6145 14.2319C30.7544 13.9116 30.8543 13.5913 31.2939 13.8516C31.3139 13.8716 31.3339 13.9116 31.3539 13.9516C31.3938 13.8516 31.2939 13.8115 31.2739 13.7515C31.0741 13.3912 30.6944 12.9308 31.234 12.6706C31.6736 12.4504 31.8534 13.0109 32.0733 13.3311C32.1132 13.3912 32.1132 13.5113 32.1132 13.6514Z" fill="#FDFDFD"/>
  <path d="M37.0891 38.7123C36.7494 39.653 36.9692 40.6339 36.9492 41.5947C36.9292 43.4362 36.1699 44.1968 34.3514 44.1168C32.9126 44.0567 32.1732 43.2961 32.1332 41.8549C32.1133 41.1143 32.1332 40.3536 32.1332 39.613C32.1332 39.2327 32.1532 38.8724 31.8934 38.5321C32.3331 38.5321 32.7327 38.5321 33.0924 38.5321C32.7927 39.9133 32.7927 41.2744 33.0525 42.6155C33.1924 43.3761 33.7719 43.6964 34.6911 43.7164C35.5704 43.7364 36.1699 43.4362 36.3098 42.7156C36.5695 41.3945 36.5895 40.0534 36.3098 38.7323C36.5695 38.3319 36.8293 38.3319 37.0891 38.7123Z" fill="#FCFCFC"/>
  <path d="M15.8867 43.9366C15.1873 44.1968 14.7477 43.9566 14.6078 43.216C14.5079 42.5955 14.1282 42.4153 13.5487 42.4954C13.3489 42.5154 13.149 42.5154 12.9492 42.4954C12.1698 42.3753 11.6702 42.6155 11.5503 43.4562C11.4704 44.0167 11.0907 44.0967 10.5712 43.9366C11.6703 42.1151 12.3697 40.1334 13.209 38.0717C14.1682 40.0534 14.8676 42.055 15.8867 43.9366Z" fill="#FBFBFB"/>
  <path d="M41.7252 39.593C41.3855 39.0726 40.9459 38.7723 40.3064 38.7923C39.9667 38.7923 39.647 38.8724 39.5071 39.2327C39.3672 39.593 39.4272 39.9533 39.7269 40.1935C40.0666 40.4737 40.4663 40.7139 40.826 40.9741C41.1457 41.2143 41.4854 41.4345 41.7852 41.6947C42.2248 42.0751 42.3447 42.5955 42.1649 43.1159C41.985 43.6364 41.6053 43.9967 41.0458 44.0967C40.6262 44.1768 40.2065 44.1568 39.7869 44.1168C38.8277 43.9967 38.7477 43.8766 38.8476 42.8157C39.3073 43.3761 39.7669 43.8565 40.5262 43.8165C40.9459 43.7965 41.3056 43.7164 41.4854 43.256C41.6453 42.8157 41.5054 42.4554 41.1657 42.1952C40.6262 41.7748 40.0666 41.4145 39.5271 41.0142C38.9675 40.6138 38.5679 40.1134 38.8277 39.3728C39.0874 38.6322 39.7069 38.392 40.4263 38.412C40.9459 38.412 41.4655 38.4921 41.8851 38.8724C41.9251 39.1126 42.1249 39.4128 41.7252 39.593Z" fill="#FBFAFA"/>
  <path d="M30.055 17.0542C30.3547 17.2744 30.7344 17.4946 30.6944 16.854C30.6345 16.1935 30.8743 15.8532 31.4938 15.7531C31.7735 15.7131 31.8734 15.4529 32.0733 15.3328C32.2531 15.653 32.393 15.9733 32.5928 16.2535C32.7327 16.4737 32.9525 16.7539 33.2523 16.5938C33.552 16.4537 33.3522 16.1534 33.3522 15.9132C33.7719 16.0133 33.7519 16.0133 33.8718 16.6739C33.9317 17.0342 33.7119 17.1743 33.4921 17.1943C33.0125 17.2343 33.0325 17.5146 33.1524 17.8148C33.2523 18.055 33.2123 18.1551 33.0525 18.3553C32.6928 18.7756 33.1324 19.3161 32.9326 19.7965C33.0525 19.9166 33.0525 20.0367 33.0125 20.1968C32.5529 20.437 32.393 19.9366 32.0733 19.8365C31.9334 19.7965 31.7735 19.9166 31.6536 19.7565C31.6137 19.6964 31.6137 19.6363 31.5937 19.5763C31.5537 19.256 31.7735 19.0759 31.9534 18.8957C31.9334 18.8957 31.9334 18.8757 31.9134 18.8757C31.5337 19.0759 31.6536 19.5363 31.4538 19.8365C30.8143 19.7965 31.0541 19.2961 30.9942 18.9558C30.9542 18.6155 30.9542 18.2952 31.3739 18.1751C31.6936 18.0951 31.9734 17.9549 32.2931 17.8549C31.4938 17.4145 31.0741 17.5546 30.6744 18.3553C30.6145 18.4954 30.5745 18.6355 30.3947 18.6555C29.8551 18.1751 30.035 17.5946 30.055 17.0542Z" fill="#221E1B"/>
  <path d="M31.254 13.9316C30.9542 13.7915 30.9542 13.7915 30.6345 14.392C30.4946 14.412 30.4147 14.392 30.4746 14.2119C30.4746 13.8716 30.6145 13.5113 30.2348 13.211C30.2748 13.6314 30.075 13.9316 29.8951 14.2519C29.7752 14.2919 29.6953 14.2119 29.6553 14.1318C29.5554 13.8916 29.5754 13.6114 29.4355 13.3912C29.4155 13.3111 29.4155 13.231 29.4755 13.171C29.4355 13.0109 29.3755 13.191 29.3356 13.171C29.2157 13.2511 29.1158 13.2911 28.9759 13.2511C28.876 13.211 28.816 13.131 28.776 13.0309C28.9359 12.9108 29.1158 12.8307 29.2357 12.6906C29.3556 12.5705 29.6953 12.7306 29.5954 12.3903C29.5154 12.0701 29.2956 12.2502 29.1158 12.2502C29.0158 12.2502 28.9159 12.2702 28.836 12.2903C28.776 12.2702 28.7561 12.2302 28.776 12.1902C28.796 12.1501 28.816 12.1301 28.836 12.1301C29.4355 11.6898 30.055 11.8699 30.6545 12.1301C30.8543 12.2102 31.0342 12.3903 31.254 12.1902C31.4738 11.99 31.3939 11.7298 31.3139 11.4896C31.194 11.1293 30.8943 10.809 30.9143 10.3887C30.7544 10.0484 30.9942 9.62804 30.7544 9.28775C30.3347 9.14764 30.3747 8.6272 30.035 8.42704C29.975 8.34697 29.975 8.24688 30.055 8.16682C30.8943 7.96665 30.4746 7.48625 30.3148 7.0659C30.2348 6.9458 30.2348 6.84572 30.3148 6.74564C30.8343 6.86574 30.9143 7.26607 30.9143 7.70643C30.9143 8.96748 31.194 10.1485 31.6936 11.2894C31.8135 11.5697 31.7136 11.8499 31.7536 12.1301C31.8135 12.5305 31.9734 12.6506 32.2731 12.8507C32.7328 13.151 32.2731 13.4112 32.0933 13.6514C31.9334 13.4112 31.7735 13.171 31.5937 12.9508C31.4938 12.8107 31.3939 12.6105 31.194 12.7106C30.9742 12.8307 31.0541 13.0509 31.1341 13.231C31.214 13.4112 31.294 13.5913 31.3739 13.7715C31.4538 13.9316 31.3739 13.9516 31.254 13.9316Z" fill="#231E1B"/>
  <path d="M7.65365 43.9767C7.234 43.9767 6.89428 43.9767 6.59453 43.9767C6.71443 42.1551 6.7544 40.3536 6.55457 38.4721C7.55373 38.4721 8.59287 38.4921 9.632 38.4721C10.1716 38.4521 9.97172 38.8324 10.0716 39.1727C9.33225 38.9124 8.63283 38.8724 7.9534 38.8724C7.5937 38.8724 7.3539 38.9525 7.41385 39.3728C7.4738 39.8732 7.15407 40.6739 7.57372 40.834C8.17322 41.0742 8.93258 41.0742 9.61202 40.794C9.67197 40.774 9.73192 40.7139 9.85182 40.6539C9.85182 40.9341 9.85182 41.1943 9.85182 41.5146C9.19237 41.1943 8.51293 41.2944 7.8335 41.2744C7.63366 41.2744 7.39387 41.2744 7.41385 41.5546C7.49378 42.3353 7.27397 43.136 7.65365 43.9767Z" fill="#FAFAFA"/>
  <path d="M27.9367 5.06423C27.537 5.06423 27.0974 5.22437 26.7177 4.94413C26.5179 4.82403 26.2181 4.92412 26.1382 4.62387C26.0583 4.4237 25.8784 4.4237 25.6986 4.40368C24.9192 4.34363 24.1199 4.14346 23.3605 4.26356C22.3014 4.4237 21.1024 4.20351 20.2231 5.16432C19.9034 5.5046 19.3638 5.6247 18.9242 5.8649C18.6245 5.60468 18.9242 5.46457 19.0641 5.34447C20.383 4.1835 21.9617 3.50293 23.6803 3.72312C24.7993 3.86323 26.0783 3.74313 27.0574 4.58383C27.2173 4.72395 27.4771 4.784 27.7569 4.74397C28.0766 4.68392 28.0166 4.9041 27.9367 5.06423Z" fill="#221D1B"/>
  <path d="M32.8326 32.427C32.9925 32.7273 33.3722 32.8674 33.4521 33.2477C33.0125 33.4279 32.6728 33.2077 32.353 32.9875C31.5937 32.447 30.9542 31.7465 30.5345 30.9258C30.015 29.9249 29.3555 29.0842 28.5762 28.3036C28.4763 28.2035 28.3364 28.1234 28.3963 27.8632C28.9359 28.0434 29.2956 28.4637 29.7152 28.804C30.1549 29.3645 30.5945 29.9249 31.0341 30.4854C31.7136 31.0859 32.2731 31.7665 32.8326 32.427Z" fill="#F9F9F8"/>
  <path d="M10.1515 33.4679C10.3913 33.4679 10.6111 33.4679 10.8509 33.4679C10.8109 33.9683 10.4313 34.6689 10.9109 34.8891C11.4504 35.1293 12.2497 35.1293 12.8093 34.8891C13.189 34.7289 12.9691 34.0083 12.8692 33.5079C13.0691 33.3878 13.3089 33.4279 13.5686 33.4879C13.3688 34.5088 13.4487 35.5096 13.4887 36.5104C13.4887 36.7106 13.6686 36.9508 13.2489 36.9508C12.8892 36.9508 12.9492 36.7907 12.9691 36.5505C13.0091 35.2694 13.0091 35.2694 11.7701 35.2694C10.6511 35.2694 10.6711 35.2694 10.751 36.4504C10.771 36.6305 11.0507 36.9508 10.5512 36.9708C10.0116 36.9908 10.2914 36.6505 10.2714 36.4303C10.2114 35.4495 10.3513 34.4887 10.1515 33.4679Z" fill="#FBFBFB"/>
  <path d="M5.81516 34.1485C5.65529 33.628 5.71524 33.3678 6.31474 33.4078C7.11407 33.4479 7.91341 33.4479 8.71274 33.4078C9.27227 33.3678 9.37219 33.588 9.23231 34.0684C9.03247 34.1685 8.99251 33.9483 8.89259 33.8682C8.59284 33.6681 8.23314 33.548 7.91341 33.7081C7.59367 33.8482 7.77352 34.2085 7.77352 34.4487C7.79351 35.2494 7.65362 36.0701 7.89342 36.8707C7.33389 37.0709 7.17402 36.9308 7.27394 36.3303C7.37386 35.6898 7.29392 35.0292 7.29392 34.3887C7.29392 33.608 6.93422 33.4078 6.2348 33.8082C6.05495 33.9083 5.95504 34.0284 5.81516 34.1485Z" fill="#F7F7F7"/>
  <path d="M15.5071 35.2494C15.4871 36.8707 15.7269 37.0509 17.2456 36.4504C17.3056 36.6305 17.2856 36.8907 17.1257 36.8907C16.4263 36.9308 15.7469 36.9308 15.0474 36.9108C14.8276 36.8907 14.9875 36.6906 14.9875 36.5505C14.9875 35.7098 15.0075 34.849 15.0075 34.0083C15.0075 33.8282 14.9475 33.6681 14.8876 33.4078C15.547 33.4078 16.1665 33.4078 16.806 33.4078C17.0058 33.4078 17.1657 33.4279 17.1257 33.6881C17.0658 33.9683 16.8859 33.7481 16.786 33.7281C15.4471 33.548 15.4471 33.548 15.4871 34.9091C15.587 35.0292 15.587 35.1493 15.5071 35.2494Z" fill="#F8F8F8"/>
  <path d="M34.2315 21.7381C34.6711 21.9182 34.3114 22.1985 34.3114 22.4387C34.2714 23.2594 34.6112 24.1001 34.0716 24.9007C33.9118 25.1409 33.6719 25.7014 33.3322 25.9616C33.1923 25.8015 33.1524 25.6213 33.1724 25.4212C33.1923 25.3411 33.2123 25.2811 33.2323 25.201C33.4321 24.9007 33.6919 24.6205 33.7519 24.2402C33.7719 24.08 33.8718 23.8198 33.7119 23.7598C32.9326 23.4595 33.3322 23.1593 33.632 22.759C33.8518 22.4587 33.612 21.9783 33.8118 21.618C34.1116 21.1976 34.1316 21.578 34.2315 21.7381Z" fill="#211D1B"/>
  <path d="M30.3347 6.72561C30.3347 6.82569 30.3347 6.94579 30.3347 7.04588C29.995 6.88574 29.7752 6.32527 29.2556 6.72561C29.0758 5.88491 28.7161 6.62552 28.4363 6.62552C28.3763 6.62552 28.3164 6.68557 28.2365 6.72561C28.0766 6.78566 28.0566 6.70559 28.0766 6.56547C28.0966 6.34529 27.8967 6.30526 27.7569 6.20517C27.617 6.10509 27.537 6.00501 27.7768 5.90492C27.8168 5.88491 27.8768 5.88491 27.9167 5.88491C27.9967 5.88491 28.0566 5.88491 28.1365 5.88491C28.0766 5.84487 27.9967 5.86489 27.9767 5.78482C28.0966 5.62469 28.2964 5.48457 28.1765 5.22436C28.5562 4.96414 28.5362 5.46456 28.796 5.52461C29.2156 5.64471 29.5154 6.04504 29.995 6.12511C30.3147 6.20517 30.3347 6.48541 30.3347 6.72561Z" fill="#24201D"/>
  <path d="M32.8327 32.427C32.0933 31.9066 31.5537 31.226 31.0541 30.4854C31.1541 30.3253 31.254 30.2652 31.3739 30.4454C31.7935 31.0859 32.3331 31.5863 32.9526 32.0467C33.2323 32.2669 32.8127 32.2869 32.8327 32.427Z" fill="#201A16"/>
  <path d="M34.2315 21.7381C34.1116 21.7581 34.0916 21.3778 33.9117 21.638C33.2123 21.4379 33.0525 20.8374 32.8726 20.2569C32.8726 20.0968 32.8726 19.9366 32.8726 19.7765C32.8926 19.7765 32.9326 19.7765 32.9526 19.7765C33.2923 19.9366 34.1915 21.3178 34.2315 21.7381Z" fill="#221E1D"/>
  <path d="M18.3846 7.34613C18.4845 7.46623 18.5645 7.56631 18.6644 7.68641C18.7243 7.98666 17.865 7.36614 18.2447 8.10676C18.3247 8.24688 17.945 8.04671 17.7851 8.10676C17.7252 8.08674 17.6852 8.0267 17.6652 7.96665C17.7452 7.74646 17.5453 7.74646 17.4254 7.6664C17.2456 7.60635 17.2855 7.48625 17.3055 7.36615C17.6852 7.24605 18.0249 7.76648 18.3846 7.34613Z" fill="#FDFCFA"/>
  <path d="M15.5071 35.2488C15.5071 35.1489 15.5071 35.029 15.5071 34.9291C15.9467 35.009 16.4263 34.8492 16.846 35.089C16.8859 35.1489 16.8859 35.2089 16.846 35.2688C16.4063 35.2488 15.9467 35.2488 15.5071 35.2488Z" fill="#E0DDDE"/>
  <path d="M37.0891 38.7117C36.8293 38.4519 36.5695 38.4719 36.3097 38.7117C36.2098 38.6518 36.05 38.5119 36.1699 38.4719C36.5096 38.352 36.8893 38.352 37.229 38.4719C37.3489 38.5119 37.209 38.6518 37.0891 38.7117Z" fill="#878485"/>
  <path d="M16.846 35.2494C16.846 35.1893 16.846 35.1293 16.846 35.0692C16.846 34.9491 16.806 34.789 16.9659 34.769C17.2656 34.749 17.1258 35.0092 17.1258 35.1293C17.1258 35.3695 17.0458 35.4896 16.846 35.2494Z" fill="#7B7779"/>
  <path d="M41.7252 39.593C42.005 39.3928 41.8052 39.0726 41.8851 38.8324C42.1249 39.0926 42.0649 39.4129 41.985 39.6731C41.9051 39.9133 41.7652 39.7531 41.7252 39.593Z" fill="#7D797A"/>
  <path d="M32.8726 20.2569C33.2923 20.6572 33.3722 21.3178 33.9117 21.638C33.9517 21.9183 33.8318 22.1785 33.9117 22.4787C34.0516 22.9792 33.652 23.1593 33.1923 23.2794C33.5121 23.4796 33.9917 23.2794 34.0117 23.6397C34.0516 24.2402 33.9117 24.8407 33.3122 25.181C33.2523 25.221 33.1924 25.221 33.1324 25.161C33.0924 25.1009 33.0725 25.0209 33.0725 24.9408C33.0924 24.1201 32.8526 23.4596 32.0533 23.2794C32.413 23.4996 32.9925 23.6998 32.8127 24.4204C32.7127 24.8207 32.453 25.161 31.9734 25.161C31.5537 25.161 31.214 25.0008 31.1341 24.5805C31.2939 25.141 31.7136 25.241 32.2531 25.161C32.5929 25.1009 32.9126 25.0209 32.6728 25.5613C32.473 25.8415 32.1732 25.9416 31.8535 25.9817C31.6137 26.0017 31.3539 26.0217 31.254 26.3019C31.214 26.362 31.154 26.402 31.0941 26.442C30.7943 26.3219 30.3147 26.362 30.6345 25.8015C30.7344 25.6414 30.7544 25.3611 30.5546 25.4012C30.3547 25.4412 29.9351 25.141 29.9151 25.6214C29.8951 26.2619 29.6553 25.7615 29.4555 25.7214C29.4155 26.1018 30.035 26.5021 29.4555 26.8624C29.2956 26.8824 29.2357 26.8424 29.2756 26.6822C29.5354 25.8415 28.4963 26.0817 28.3164 25.5013C28.856 25.7014 29.2556 25.5013 29.6353 25.221C29.7552 25.1209 30.035 25.181 29.975 24.9208C29.9151 24.6606 29.6953 24.5605 29.4555 24.6005C29.1157 24.6405 28.776 24.7406 28.4363 24.7606C28.1166 24.8007 27.6769 24.8407 27.7169 24.4003C27.7569 24.1001 27.7569 23.5196 28.4563 23.6397C28.836 23.7198 29.2756 23.4996 29.4355 23.0993C29.5754 22.739 29.5554 22.3186 29.1757 22.0384C29.0158 21.9783 28.8959 21.9583 29.0158 22.1985C29.0558 22.5388 29.1757 22.9191 28.756 23.1193C28.5762 23.1793 28.5162 23.0792 28.5562 22.9191C28.5762 22.6389 28.4163 22.4787 28.1565 22.5188C27.4971 22.6189 27.0974 22.0784 26.398 21.9583C26.9376 21.618 27.7169 21.7381 27.577 20.9375C27.5371 20.6572 27.3572 20.437 27.0375 20.397C26.7177 20.357 26.5179 20.4771 26.4779 20.8574C26.6978 20.7573 26.9176 20.5972 27.0575 20.8974C27.1574 21.1376 26.9376 21.1977 26.7777 21.2377C26.1382 21.3978 25.5187 21.4579 24.9392 21.0175C24.8793 20.8774 24.9592 20.8174 25.0591 20.7973C25.239 20.7973 25.3988 20.7773 25.5787 20.7973C25.4388 20.7773 25.3189 20.7973 25.179 20.7773C25.159 20.7573 25.1191 20.7373 25.0991 20.7173C25.159 20.6372 24.9992 20.4571 25.219 20.437C25.6586 20.417 26.0383 20.1968 26.378 19.9566C26.8776 19.5763 27.4371 19.8766 27.9567 19.8165C27.8768 19.5763 28.0566 19.4963 28.2165 19.3962C28.776 19.236 29.3156 19.0959 29.5953 19.8365C29.7352 20.8774 29.7352 20.8774 31.0142 21.0576C31.1141 21.0776 31.0342 20.9174 31.0541 21.0175C30.2748 21.0175 29.7152 20.7773 29.6353 19.8766C29.6353 19.7965 29.6553 19.7365 29.6753 19.6564C29.7552 19.5163 29.8751 19.4362 30.035 19.4362C30.2548 19.4963 30.3747 19.6964 30.4946 19.8365C30.3947 19.4362 30.015 19.0759 30.3747 18.6155C30.6345 18.3153 30.4147 17.8549 30.9542 17.5947C31.4538 17.3545 32.2931 17.2344 32.6128 17.7148C32.7127 17.8549 32.7927 18.1551 32.5329 18.035C32.1133 17.8549 31.9534 18.1751 31.6736 18.2752C31.4938 18.3553 31.0541 18.1752 31.1541 18.4554C31.3139 18.8958 30.7943 19.4562 31.4138 19.7565C31.4738 19.6764 31.5138 19.5363 31.6736 19.6163C31.6936 19.6564 31.7136 19.6964 31.7336 19.7365C32.0333 19.8165 31.8735 19.5163 31.9734 19.4562C32.2731 19.7365 32.5729 19.9967 32.8726 20.2569Z" fill="#FDFDFC"/>
  <path d="M27.1574 27.8832C27.1973 27.7031 27.1374 27.4429 27.3772 27.3828C27.5171 27.3428 27.597 27.543 27.6769 27.6631C28.6761 29.0842 29.6753 30.5054 30.4546 32.0868C30.5545 32.3069 30.7943 32.5471 30.5745 32.7673C30.3947 32.9475 30.1549 32.7273 29.955 32.6472C29.3555 32.427 28.756 32.1668 28.1565 31.9266C27.3972 31.6063 26.7577 31.1259 26.418 30.3653C25.6786 28.784 24.5795 27.4629 23.4604 26.1818C22.9009 25.5413 22.3813 24.8607 22.1016 24.0601C22.0216 23.8399 21.9017 23.5997 22.0017 23.3395C22.1016 23.0993 22.2415 22.8791 22.5012 22.839C22.801 22.799 22.9409 23.0192 23.0208 23.2794C23.2206 23.98 23.4005 24.6606 23.6003 25.3611C24.02 25.2611 23.7602 24.9608 23.7602 24.7606C23.7402 24.5204 23.7202 24.2602 23.6803 24.02C23.6003 23.3595 23.4005 22.6589 24.3597 22.4787C24.4796 22.4587 24.5595 22.2786 24.6794 22.1385C25.2789 23.0192 25.8984 23.8799 26.4579 24.7606C26.6977 25.141 26.8776 25.5413 27.3772 25.6814C27.7768 25.7815 27.4571 26.1218 27.6769 26.422C26.7777 25.9016 26.8376 26.5021 26.7777 26.9825C26.7377 27.3628 26.8376 27.7231 26.8976 28.0834C27.1174 28.2035 27.0974 27.9433 27.1574 27.8832Z" fill="#FDFDFD"/>
  <path d="M22.0216 27.9633C21.3422 27.0826 20.7427 26.2018 19.7435 25.7014C19.3039 25.4812 18.7444 25.0209 18.8643 24.6806C19.144 23.9199 18.4846 23.7598 18.2448 23.3194C18.0449 22.9591 17.965 22.5588 17.985 22.1585C18.025 21.638 18.2448 21.2978 18.8643 21.4379C18.3847 22.3787 18.4446 22.819 19.5037 23.4395C22.1016 24.9608 23.4005 27.583 25.199 29.8048C25.219 29.8449 25.199 29.9049 25.219 29.985C24.9192 30.1051 24.6594 29.945 24.3797 29.8649C23.3006 29.4846 22.3014 28.9241 21.3022 28.3436C19.5037 27.3228 17.6653 26.382 15.627 25.5613C16.3863 25.4012 16.3264 24.6606 16.766 24.3003C17.2456 23.8999 17.4454 23.8999 17.5653 24.5004C17.6852 25.141 18.0449 25.4812 18.5645 25.8215C19.4837 26.422 20.363 27.0826 21.2623 27.7031C21.4421 27.8632 21.622 28.1234 22.0216 27.9633Z" fill="#FDFDFD"/>
  <path d="M21.9417 11.3495C22.4213 11.5096 22.0217 10.9491 22.2415 10.9691C22.4813 10.9892 22.7011 11.1893 22.9609 11.1093C23.0608 11.0892 23.2207 11.0092 23.2207 10.9892C23.1407 10.4087 23.6603 10.5088 23.9401 10.3486C24.08 10.3286 24.1199 10.4287 24.1199 10.5488C23.6403 11.4696 22.9209 12.2302 22.4413 13.0909C22.6811 12.9108 22.801 12.3503 23.3406 12.5705C23.3805 13.0309 23.1208 13.4712 23.2407 13.9516C23.3006 14.1518 23.3606 14.332 23.5804 14.392C23.8602 14.4721 23.9401 14.3119 23.9601 14.0717C24 13.9716 24.06 13.8916 24.1599 13.8516C24.1199 13.9516 24.1999 13.7515 24.2398 13.8315C24.2598 13.8716 24.3597 13.7915 24.3198 13.7715C24.0999 13.5713 23.6803 13.5513 23.7003 13.1309C23.7402 13.0108 23.8202 12.9508 23.9401 12.9508C24.3797 13.0909 24.8593 13.1109 25.219 13.4312C25.3389 13.5713 25.4588 13.7315 25.4188 13.8916C25.219 14.8124 25.4388 15.6731 25.8585 16.4938C25.7985 16.8541 25.5188 16.834 25.259 16.8941C24.8194 16.9141 24.5396 17.1943 24.2798 17.4946C24 17.8149 23.7203 17.8149 23.3606 17.6547C22.881 17.4345 22.4413 17.1543 22.0616 16.814C21.7419 16.5138 21.642 16.1735 21.7819 15.7331C22.0816 14.8324 22.0617 14.8324 21.0825 14.7723C21.0425 14.7723 20.9825 14.7323 20.9426 14.7123C20.8826 14.5521 20.8027 14.4521 20.6428 14.372C20.5829 14.352 20.5629 14.3119 20.5429 14.2519C20.5429 14.1518 20.6029 14.0517 20.5829 13.9316C20.463 13.8516 20.2831 13.8315 20.2432 13.6514C20.3231 13.3912 20.3231 13.0909 20.6029 12.9108C20.6029 12.8307 20.6228 12.7707 20.6228 12.6906C20.9426 12.8107 21.2823 13.0909 21.4621 12.4704C21.4821 12.3903 22.1016 12.5305 22.2415 12.0901C22.3414 11.8699 22.1016 11.7298 22.0816 11.5496C22.0417 11.5296 22.0017 11.5096 21.9617 11.4896C21.9218 11.4495 21.9018 11.4095 21.9218 11.3895C21.9218 11.3695 21.9417 11.3495 21.9417 11.3495Z" fill="#201B17"/>
  <path d="M20.9026 14.7323C21.1025 14.7923 21.2224 14.6522 21.4022 14.5922C21.642 14.5121 21.9018 14.4921 22.1016 14.6922C22.3015 14.9124 22.2415 15.1526 22.1416 15.3928C21.7219 16.3937 21.7419 16.4537 22.6012 17.0542C22.6412 17.0742 22.6811 17.1143 22.7211 17.1343C23.7403 17.8148 23.8202 17.8149 24.5995 16.8941C24.7994 16.6739 24.9992 16.5938 25.239 16.774C25.3989 16.9341 25.3989 17.1343 25.4189 17.3144C25.4388 17.4545 25.5188 17.5346 25.6387 17.5947C25.8385 17.7348 26.0383 17.8549 26.1183 18.1151C26.1383 18.2152 26.1582 18.3353 26.1582 18.4354C26.1383 18.6155 26.1183 18.7957 25.9384 18.8958C25.3589 18.8757 24.9592 18.4754 24.4796 18.2352C24.1999 18.4154 23.8402 18.5154 23.5604 18.3553C22.7211 17.8949 21.8219 17.5346 21.1824 16.774C21.1224 16.6739 21.0825 16.5738 21.0625 16.4537C21.0425 16.2335 21.0025 16.0133 21.0225 15.7932C21.0025 15.613 21.1624 15.3728 20.9026 15.2527C20.6628 15.0926 21.0025 14.9124 20.9026 14.7323Z" fill="#FBFBFA"/>
  <path d="M25.9984 18.1351C25.8385 17.975 25.6986 17.8148 25.5387 17.6547C25.4188 17.5146 25.4188 17.3544 25.5188 17.1943C26.0383 17.0942 26.5179 17.3945 27.0375 17.3745C27.2773 17.4545 27.5371 17.4345 27.7769 17.5146C28.2965 17.6547 28.796 17.8549 28.9359 18.4353C29.0758 19.0158 28.5562 19.176 28.2365 19.4562C28.1366 19.5563 28.0367 19.6564 27.9367 19.7765C27.3572 18.8557 26.9176 18.7756 26.0183 19.4562C25.5787 19.7765 25.1391 20.0167 24.5795 19.7364C24.3397 19.6163 24.1999 19.4162 24.1799 19.1359C24.1599 18.8157 24.2798 18.8957 24.5196 18.9157C24.6994 18.9157 24.4197 18.6155 24.4996 18.4554C24.7394 18.1751 24.8793 18.4554 25.0192 18.5554C25.259 18.7356 25.5587 18.7156 25.8185 18.8557C25.9984 18.7556 25.9784 18.5554 25.9784 18.3953C26.0383 18.3553 26.0983 18.3152 26.1382 18.2752C26.1982 18.2352 26.2981 18.2752 26.3381 18.1751C26.2781 18.2152 26.1982 18.2152 26.1382 18.2152C26.0983 18.2352 26.0383 18.1951 25.9984 18.1351Z" fill="#F9F9F8"/>
  <path d="M19.5437 14.392C19.4837 14.412 19.4438 14.432 19.3838 14.4521C19.2239 14.4721 19.0841 14.5521 18.9242 14.5121C18.6444 14.412 18.2847 14.5121 18.0449 14.2519C18.3247 13.8315 18.0249 13.6914 17.7052 13.5913C17.4654 13.5113 17.3655 13.4112 17.4254 13.1309C17.4854 12.8507 17.6652 12.6505 17.8851 12.6305C18.1848 12.6105 18.0449 12.8907 18.0649 13.0709C18.1049 13.3111 18.2248 12.9908 18.3047 13.0709C18.5045 13.231 18.5445 13.5513 18.8243 13.6714C18.8842 13.7114 18.9442 13.7315 18.9841 13.7915C19.164 13.9717 19.5836 13.9917 19.5437 14.392Z" fill="#EDECEB"/>
  <path d="M20.7427 18.6155C20.3231 18.5555 19.8835 18.5755 19.7036 18.0951C19.9434 17.7748 20.6428 18.3553 20.6628 17.5947C20.9826 17.6347 21.2623 17.7948 21.4422 18.055C21.7619 18.5355 21.0625 18.3153 21.0625 18.5755C20.9426 18.6756 20.8427 18.6756 20.7427 18.6155Z" fill="#EFEEED"/>
  <path d="M18.7643 10.7089C19.2439 10.6689 19.164 11.4295 19.6636 11.4295C19.6636 11.4495 19.6436 11.4896 19.6436 11.4896C19.5037 11.6297 19.4238 11.9299 19.144 11.7898C18.7843 11.6297 18.3047 11.6097 18.2647 11.1092C18.2248 10.9891 18.3647 10.6288 18.7643 10.7089Z" fill="#EEEDEC"/>
  <path d="M19.2839 9.96829C19.2439 9.74811 20.0033 9.78814 19.4437 9.38781C19.3438 9.30774 19.5437 9.28773 19.6236 9.24769C19.7635 9.18764 19.9034 9.14761 20.0033 9.30774C20.303 9.84819 20.9025 10.3086 20.5628 11.0492C20.363 10.9091 20.5628 10.5688 20.303 10.4487C19.9433 10.3086 19.4637 10.4287 19.2839 9.96829Z" fill="#34312E"/>
  <path d="M31.0741 26.442C31.0941 26.362 31.0941 26.2819 31.1141 26.2018C31.2939 26.1218 31.4538 26.0017 31.6336 25.9216C32.2331 25.7214 32.4929 26.0017 32.413 26.6822C31.8135 26.2219 31.8734 27.1827 31.3938 27.1026C31.4138 26.8424 31.3738 26.5621 31.0741 26.442Z" fill="#F1F1F0"/>
  <path d="M20.6028 14.2319C20.6028 14.2919 20.6228 14.3319 20.6228 14.392C20.383 14.412 20.4829 14.9124 20.2231 14.7723C20.0433 14.6522 19.9833 14.3119 19.8834 14.0717C19.6636 14.0117 19.3639 14.0117 19.5437 13.6314C19.7036 13.5913 19.8435 13.5313 20.0033 13.4912C20.0833 13.5713 20.2231 13.5113 20.2831 13.6314C20.423 13.8916 20.9026 13.4512 20.9226 13.9516C20.8027 14.0517 20.5029 13.9116 20.6028 14.2319Z" fill="#D9D8D6"/>
  <path d="M32.413 26.6822C32.5129 26.362 32.413 26.1418 32.1132 26.0217C31.8535 25.9016 31.6536 25.9416 31.5137 26.2419C31.3739 26.5421 31.234 26.2219 31.1141 26.2018C31.154 25.8015 31.4538 25.7214 31.7735 25.7615C32.1132 25.8015 32.353 25.6614 32.5928 25.5013C32.6928 25.5213 32.7527 25.5813 32.8127 25.6614C32.8127 25.7214 32.8127 25.7815 32.7927 25.8415C32.7527 25.9616 32.7327 26.0817 32.6328 26.1618C32.5928 26.362 32.6328 26.5621 32.413 26.6822Z" fill="#393633"/>
  <path d="M21.0424 18.7156C21.4221 18.9358 21.3422 19.216 21.1424 19.4963C21.0025 19.6964 20.7227 19.6964 20.5429 19.6164C20.2831 19.5363 20.2431 19.2561 20.2831 18.9958C20.3231 18.8357 20.4629 18.8757 20.5828 18.8757C20.8226 19.0759 20.8826 18.7757 21.0424 18.7156Z" fill="#EFEEED"/>
  <path d="M20.2631 13.6313C20.1632 13.5913 20.0833 13.5313 19.9834 13.4912C19.8635 13.2911 19.4838 13.191 19.6636 12.8507C19.8635 12.5104 20.0633 12.8907 20.2631 12.8707C20.3631 12.8507 20.463 12.8907 20.5429 12.9107C20.6628 13.251 20.443 13.4312 20.2631 13.6313Z" fill="#BEBCBA"/>
  <path d="M18.4846 15.2927C18.7044 15.593 19.124 15.2727 19.3638 15.573C19.184 15.8532 18.8642 15.7131 18.6444 15.8332C18.4246 15.9533 18.1448 15.8932 18.0649 15.673C17.965 15.3728 18.3047 15.3928 18.4846 15.2927Z" fill="#CDCBC9"/>
  <path d="M17.4455 8.46704V8.54711C17.4655 8.76729 17.7652 9.06754 17.3655 9.18764C17.1857 9.24769 16.846 9.20766 16.786 8.98747C16.6861 8.60716 17.1057 8.56712 17.3056 8.40699C17.4055 8.32692 17.4455 8.34694 17.4455 8.46704Z" fill="#EBEBE9"/>
  <path d="M19.284 9.96829C19.6636 10.0283 19.9834 10.2285 20.2831 10.4687C20.0433 10.5888 19.7636 10.4487 19.5038 10.5888C19.204 10.7289 19.0641 10.4887 19.1041 10.1885C19.1641 10.1084 19.224 10.0484 19.284 9.96829Z" fill="#E9E4E0"/>
  <path d="M18.7844 13.7715C18.2448 13.7715 18.4247 13.3311 18.3447 13.0509C18.5645 13.0509 18.7844 13.0709 19.0042 13.0709C19.1041 13.3511 19.1441 13.6314 18.7844 13.7715Z" fill="#3F3B38"/>
  <path d="M19.5437 13.6313C19.4238 13.9716 19.7635 13.9116 19.8834 14.0717C19.7635 14.1718 19.6636 14.2919 19.5437 14.392C19.4038 14.1318 18.9442 14.1918 18.9242 13.7915C19.0441 13.5713 19.2239 13.5112 19.4438 13.6514C19.4837 13.6113 19.5037 13.6113 19.5437 13.6313Z" fill="#3B3835"/>
  <path d="M25.8385 18.8757C25.2989 19.0559 24.9792 18.5355 24.5196 18.4754C24.5196 18.3953 24.4996 18.3353 24.4996 18.2552C25.0391 18.2152 25.4188 18.6155 25.8385 18.8757Z" fill="#2C2722"/>
  <path d="M20.1432 15.653C20.1432 16.3336 19.6636 16.5938 19.3439 16.9541C19.3838 16.4337 19.7036 16.0734 20.1432 15.653Z" fill="#E2E0E0"/>
  <path d="M19.3039 12.3503C19.3438 12.5304 19.2639 12.5705 19.0841 12.5705C18.8842 12.5505 18.7643 12.5304 18.8043 12.2902C18.8243 12.1701 18.7843 11.97 19.0241 12.03C19.184 12.05 19.3638 12.1101 19.3039 12.3503Z" fill="#F9F7F5"/>
  <path d="M18.4846 15.2927C18.6245 14.8123 18.1049 15.0926 17.985 14.8324C18.2648 14.8324 18.5046 14.8324 18.7643 14.8324C18.8043 14.7723 18.8642 14.7723 18.9242 14.7723C19.0041 14.8123 19.0641 14.8924 19.0841 14.9925C19.0841 15.4929 18.6444 15.1126 18.4846 15.2927Z" fill="#DFDDDA"/>
  <path d="M21.1624 16.4337C21.1624 16.5538 21.1824 16.6939 21.1824 16.814C20.7028 16.1735 20.6628 16.0534 20.8826 15.4729C20.9625 15.533 21.0025 15.613 21.0225 15.7131C21.0625 15.9533 21.0824 16.1935 21.1624 16.4337Z" fill="#F4F2EF"/>
  <path d="M32.7128 25.7815C32.7128 25.7214 32.7128 25.6814 32.7128 25.6213C32.7128 25.3411 32.8527 25.181 33.1324 25.1609C33.1924 25.1609 33.2523 25.1609 33.3123 25.1609C33.3123 25.201 33.3123 25.241 33.3123 25.281C33.1724 25.4412 33.3722 25.7614 33.0325 25.8215C32.9925 25.8015 32.9326 25.7815 32.8926 25.7815C32.8327 25.8415 32.7727 25.8415 32.7128 25.7815Z" fill="#E5E4E2"/>
  <path d="M19.9234 18.9355C19.7635 18.9954 19.7036 19.0354 19.6436 19.0354C19.4838 19.0354 19.3039 19.0154 18.9442 18.9754C19.3639 18.6957 19.6037 18.6757 19.9234 18.9355Z" fill="#DEDEDE"/>
  <path d="M19.4637 13.6314C19.2839 13.6514 19.084 13.6514 18.9442 13.7715C18.8842 13.7715 18.8443 13.7515 18.7843 13.7515C19.0041 13.5713 18.9442 13.2911 19.0041 13.0509C19.144 13.251 19.3039 13.4512 19.4637 13.6314Z" fill="#C1BEBC"/>
  <path d="M20.9225 15.7331C20.9025 15.653 20.9026 15.553 20.8826 15.4729C20.8826 15.4128 20.8826 15.3528 20.8826 15.2927C20.9825 15.2527 21.1623 15.1526 21.2023 15.1927C21.3821 15.3728 21.1623 15.553 21.1623 15.7331C21.0824 15.8132 21.0025 15.8132 20.9225 15.7331Z" fill="#4B4948"/>
  <path d="M23.7602 24.7206C23.9201 24.9207 23.8801 25.181 23.8801 25.4212C23.8801 25.5212 23.9201 25.7014 23.7202 25.6413C23.6003 25.6013 23.5604 25.4812 23.5803 25.3411C23.8801 25.201 23.6403 24.9207 23.7602 24.7206Z" fill="#959493"/>
  <path d="M28.5163 22.9191C28.5762 22.979 28.6561 23.059 28.7161 23.1189C28.6961 23.1589 28.6561 23.1989 28.6362 23.2188C28.4563 23.3188 28.2765 23.3987 28.0966 23.2188C28.0566 23.1789 27.9767 23.079 27.9967 23.039C28.1366 22.8392 28.3564 22.999 28.5163 22.9191Z" fill="#E4E3E1"/>
  <path d="M17.4454 8.46705C17.4055 8.44703 17.3455 8.42701 17.3056 8.407C17.2856 8.22685 17.2256 8.0467 17.4055 7.90658C17.5254 7.84653 17.6253 7.84653 17.7252 7.94662C17.7452 8.00667 17.7652 8.0467 17.7852 8.10675C17.8051 8.32693 17.6053 8.38698 17.4454 8.46705Z" fill="#94918F"/>
  <path d="M21.0425 18.7156C21.0025 18.8957 21.0025 19.1359 20.7428 19.156C20.5629 19.176 20.6229 18.9758 20.5829 18.8757C20.7028 18.8157 20.7428 18.7156 20.7428 18.5955C20.8427 18.5955 20.9426 18.5755 21.0425 18.5755C21.0425 18.6355 21.0425 18.6756 21.0425 18.7156Z" fill="#262522"/>
  <path d="M18.9442 14.8324C18.8842 14.8324 18.8243 14.8324 18.7643 14.8324C18.5845 14.5321 18.2648 14.7923 18.0449 14.6722C18.005 14.5321 18.0849 14.4721 18.1848 14.412C18.2648 14.392 18.3247 14.392 18.4046 14.372C18.6244 14.352 18.8443 14.392 19.0641 14.4721C19.204 14.6722 19.0841 14.7523 18.9442 14.8324Z" fill="#FAF9F6"/>
  <path d="M18.2248 14.5121C18.1648 14.5721 18.1049 14.6122 18.0649 14.6722C17.8451 14.6922 17.7052 14.5721 17.5653 14.432C17.5254 14.3319 17.5454 14.2319 17.6053 14.1518C17.6852 14.1918 17.7852 14.2118 17.8651 14.2519C17.985 14.352 18.2448 14.2519 18.2248 14.5121Z" fill="#CBC9C7"/>
  <path d="M18.2248 14.5116C18.1049 14.4317 17.985 14.3318 17.8651 14.2519C17.9251 14.2519 17.985 14.2319 18.0649 14.2319C18.3447 14.3318 18.7044 14.112 18.9642 14.3917C18.7843 14.5516 18.5445 14.3917 18.3647 14.5116L18.3047 14.5316L18.2248 14.5116Z" fill="#33302E"/>
  <path d="M25.1391 20.8174C25.0791 20.8774 24.9992 20.9375 24.9392 21.0175C24.6994 20.9174 24.5396 20.7573 24.5196 20.437C24.7394 20.5371 24.9193 20.6172 25.0991 20.6973V20.6772C25.1191 20.7173 25.1391 20.7573 25.1391 20.8174Z" fill="#DDDAD8"/>
  <path d="M17.6053 14.1517C17.5853 14.2516 17.5853 14.3315 17.5653 14.4314C17.3855 14.3915 17.1856 14.3915 17.0258 14.1717C17.2256 14.0518 17.4054 14.0518 17.6053 14.1517Z" fill="#989593"/>
  <path d="M28.9759 22.1778C28.816 22.0579 28.5762 22.0379 28.4963 21.7781C28.796 21.6982 28.9759 21.8181 29.1357 22.0179C29.0958 22.0779 29.0358 22.1378 28.9759 22.1778Z" fill="#43413F"/>
  <path d="M18.3447 14.5119C18.5046 14.332 18.7444 14.412 18.9442 14.392C19.0841 14.412 19.244 14.4319 19.3839 14.4519C19.3439 14.4919 19.2839 14.5119 19.244 14.5518C19.204 14.6318 19.1441 14.6318 19.0841 14.5718C18.8443 14.5319 18.6045 14.5319 18.3447 14.5119Z" fill="#2C2927"/>
  <path d="M29.2756 26.6622C29.3355 26.7223 29.3955 26.7823 29.4554 26.8424C29.3755 27.0025 29.2556 27.2827 29.0558 27.0626C28.8759 26.9024 29.1357 26.7823 29.2756 26.6622Z" fill="#FCFAF7"/>
  <path d="M32.7127 25.7815C32.7727 25.7815 32.8326 25.7815 32.8926 25.7815C32.8126 25.9214 33.0524 26.3011 32.6128 26.1412C32.6128 26.0413 32.5329 25.8814 32.7127 25.7815Z" fill="#B8B5B1"/>
  <path d="M27.1574 27.8832C27.1574 28.0634 27.1574 28.2435 27.1574 28.4437C26.9376 28.3436 26.8776 28.2035 26.8976 28.0234C26.9975 27.9833 27.0774 27.9233 27.1574 27.8832Z" fill="#646363"/>
  <path d="M20.5828 19.8962C20.323 19.9561 20.0832 20.076 19.9434 19.7363C20.2231 19.5365 20.383 19.7563 20.5828 19.8962Z" fill="#EDEBEB"/>
  <path d="M18.4447 12.3298C18.4247 12.4297 18.3248 12.4497 18.2249 12.4097C18.105 12.3697 18.005 12.2898 18.025 12.1299C18.045 11.99 18.1249 11.99 18.2249 12.05C18.3248 12.1099 18.4647 12.1499 18.4447 12.3298Z" fill="#D6D3D0"/>
  <path d="M33.0325 25.8415C33.3722 25.7815 33.0525 25.4012 33.3122 25.3011C33.3122 25.5013 33.3122 25.7214 33.3122 25.9216C33.2323 25.9016 33.1324 25.8816 33.0325 25.8415Z" fill="#231F20"/>
  <path d="M19.0841 14.5521C19.144 14.5521 19.184 14.5321 19.244 14.5321C19.244 14.6922 19.2639 14.8724 19.0841 14.9925C19.0441 14.9324 18.9842 14.8924 18.9442 14.8324C19.0042 14.7323 19.0441 14.6522 19.0841 14.5521Z" fill="#EEECEA"/>
  <path d="M17.7253 7.92614C17.6253 7.90615 17.5054 7.90615 17.4055 7.88617C17.4055 7.80624 17.4255 7.7263 17.4255 7.64637C17.5854 7.70632 17.9651 7.46652 17.7253 7.92614Z" fill="#656361"/>
  <path d="M17.3455 11.7093C17.2856 11.8093 17.2256 11.9092 17.2056 11.8892C17.0857 11.8692 16.9659 11.8093 16.9858 11.6494C16.9858 11.5894 17.0258 11.5295 17.0658 11.4695C17.1457 11.5695 17.2456 11.6294 17.3455 11.7093Z" fill="#B9B5B3"/>
  <path d="M28.776 13.0108C28.836 13.0709 28.9159 13.1109 28.9759 13.171C29.0958 13.3111 28.9159 13.4912 29.0358 13.6113C29.1157 13.7514 29.1557 13.8916 29.2356 14.0117C29.3156 14.1718 29.5154 14.2919 29.3955 14.5121C29.0758 14.5521 28.776 14.5721 28.5162 14.3519C28.3963 14.2919 28.1965 14.3319 28.1765 14.1718C28.1366 13.9516 28.0566 14.1718 28.0167 14.1518C27.7769 14.1918 27.4771 14.0517 27.3572 14.412C27.3372 14.4921 27.3572 14.5921 27.4371 14.6122C28.0566 14.7723 27.9567 15.1726 27.8168 15.613C27.7569 15.653 27.6969 15.673 27.637 15.673C27.4172 15.633 27.2773 15.4529 27.1374 15.2727C27.1374 15.5129 27.1174 15.7331 26.9775 15.9132C26.8576 16.0333 26.7177 16.1134 26.5779 16.1935C26.398 16.2736 26.2981 16.4937 26.0983 16.5338C25.9784 16.5137 25.9184 16.4337 25.8784 16.3336C25.7186 15.9333 25.3988 15.5529 25.7585 15.1126C25.9384 14.8524 26.2581 14.7323 26.438 14.392C26.2581 14.5521 26.0983 14.7122 25.8784 14.5921C25.7186 14.2919 25.7985 13.9316 25.6586 13.6313C25.5987 13.3911 25.3589 13.2911 25.259 13.0709C25.179 12.8707 25.1191 12.6705 25.259 12.4303C25.6386 11.7698 25.4188 10.9691 24.7594 10.5087C24.6595 10.1685 24.8593 10.0283 25.1391 9.92826C25.259 9.78815 25.3589 9.60799 25.4988 9.50791C25.5987 9.44786 25.8385 9.40783 25.8185 9.62801C25.7785 9.92826 25.4588 10.2085 25.6986 10.5288C25.8984 10.789 26.0783 11.0492 25.9384 11.4095C26.3181 11.3494 26.1582 11.0492 26.2981 10.9291C26.4779 10.789 26.9376 11.0292 26.8776 10.5488C26.9975 10.6088 27.1774 10.6288 27.2173 10.5488C27.4172 9.86821 27.6769 10.4487 27.9167 10.4887C28.0966 10.4287 28.2764 10.3686 28.2764 10.6889C28.0766 11.2894 27.8568 11.8899 27.6769 12.4904C27.617 12.6906 27.617 12.9107 27.8568 13.0709C28.1565 13.2911 28.4563 13.1509 28.776 13.0108Z" fill="#211C18"/>
  <path d="M25.1191 9.90826C24.9992 10.1284 24.8793 10.3486 24.7594 10.5888C24.5995 11.2294 24.04 11.6297 23.7202 12.1702C23.5803 12.3103 23.4804 12.4904 23.3006 12.5905C22.9009 12.5505 22.8609 12.9308 22.6411 13.1109C22.4413 13.2711 22.3414 13.5513 21.9417 13.6114C22.5212 12.4304 23.3405 11.4896 24.04 10.4888C24.1399 10.2486 24.2997 10.0684 24.4996 9.88825C24.5395 9.84822 24.5995 9.80818 24.6395 9.76815C24.7194 9.7081 24.8193 9.68808 24.9192 9.7081C24.9792 9.76815 25.0591 9.8282 25.1191 9.90826Z" fill="#EFEEED"/>
  <path d="M29.2756 8.40701C29.3156 8.62719 29.2756 8.84737 29.0558 9.00751C28.8959 9.12761 28.6761 9.22769 28.4963 9.12761C28.2964 9.00751 28.4563 8.82736 28.5163 8.66722C28.5562 8.54712 28.6162 8.40701 28.5762 8.30692C28.4763 7.94662 28.7361 7.72644 28.9559 7.72644C29.3156 7.72644 29.2756 8.08674 29.2756 8.40701Z" fill="#312D2A"/>
  <path d="M25.3389 8.96748C25.4188 8.70726 25.259 8.58716 25.0591 8.52711C24.6994 8.40701 24.7394 8.12678 24.7993 7.76648C25.179 8.2669 25.5787 8.52711 26.2381 8.1468C26.0583 8.6272 25.7785 8.78733 25.5387 8.9875C25.4788 9.04755 25.3988 9.04755 25.3389 8.96748Z" fill="#3C3937"/>
  <path d="M26.5379 4.94411C26.6178 5.08423 26.8376 5.12426 26.7977 5.32443C26.4979 5.24436 26.4579 5.66471 26.418 5.64469C26.1782 5.48456 26.0383 5.22434 26.1382 4.92409C26.2781 4.84403 26.418 4.82401 26.5379 4.94411Z" fill="#5B5956"/>
  <path d="M25.3389 8.96747C25.3989 8.96747 25.4788 8.98749 25.5387 8.98749C25.3789 9.22769 25.199 9.44787 24.9392 9.56797C24.8793 9.54796 24.8393 9.48791 24.8193 9.42786C24.7394 9.00751 24.8193 8.72727 25.3389 8.96747Z" fill="#555251"/>
  <path d="M24.6195 9.88823C24.4596 10.1284 24.2998 10.3686 24.04 10.4887C24 10.4487 23.96 10.4087 23.9401 10.3686C23.9401 10.0083 24 9.68806 24.4796 9.70807C24.5595 9.72809 24.6195 9.78814 24.6195 9.88823Z" fill="#3D3A37"/>
  <path d="M30.055 8.16682C30.055 8.24688 30.035 8.32695 30.035 8.42703C29.8751 8.5071 29.6153 8.7473 29.7352 8.30693C29.8351 7.98667 29.7952 7.72645 29.5554 7.50627C29.5154 7.46623 29.4954 7.4262 29.5354 7.40618C29.5554 7.38617 29.5754 7.36615 29.5953 7.36615C29.995 7.48625 30.035 7.82653 30.055 8.16682Z" fill="#24201D"/>
  <path d="M22.5412 10.0679C22.3614 10.0279 22.1416 10.0679 21.9817 9.78815C22.3814 9.82811 22.761 9.86808 23.1207 9.90805C23.0208 10.2877 22.7411 10.0679 22.5412 10.0679Z" fill="#232120"/>
  <path d="M23.2206 8.86725C23.4604 8.78732 23.6603 8.70739 23.8002 8.9272C23.8201 8.96717 23.7402 9.14702 23.6803 9.167C23.5004 9.22695 23.3405 9.12704 23.2206 8.86725Z" fill="#302C2A"/>
  <path d="M22.0816 11.5696C22.2015 11.7298 22.5013 11.8499 22.2415 12.1101C22.0417 11.97 21.5221 11.9299 22.0816 11.5696Z" fill="#B8B5B3"/>
  <path d="M24.3797 5.80444C24.0999 5.76447 23.8002 5.72451 23.5204 5.68454C23.8201 5.50469 24.1199 5.52467 24.3797 5.80444Z" fill="#41403F"/>
  <path d="M19.9035 8.06647C19.8235 8.12642 19.7636 8.24633 19.6637 8.28629C19.5238 8.32626 19.4438 8.20636 19.4438 8.08646C19.4438 7.92659 19.5837 7.90661 19.7036 7.92659C19.7636 7.92659 19.8835 7.88662 19.9035 8.06647Z" fill="#6B6967"/>
  <path d="M22.5412 10.0681C22.721 9.96821 22.9808 10.168 23.1207 9.90826C23.2606 9.96821 23.5004 10.0481 23.2006 10.168C23.0008 10.248 22.741 10.228 22.5412 10.0681Z" fill="#ABABAA"/>
  <path d="M24.9792 5.28408C24.7194 5.384 24.5596 5.42396 24.3997 5.30406C24.3397 5.2641 24.3198 5.16418 24.4197 5.12421C24.5995 5.0243 24.7394 5.1442 24.9792 5.28408Z" fill="#8D8C8C"/>
  <path d="M28.816 12.1101C28.816 12.1501 28.816 12.2102 28.816 12.2502C28.6361 12.4504 28.4363 12.6105 28.0167 12.5504C28.3564 12.3503 28.5362 12.1501 28.816 12.1101Z" fill="#211F1D"/>
  <path d="M27.9966 9.68761C28.0566 9.40784 28.2564 9.38786 28.4762 9.42783C28.4962 9.42783 28.5362 9.58769 28.5162 9.60767C28.3763 9.80751 28.1765 9.76754 27.9966 9.68761Z" fill="#322F2E"/>
  <path d="M23.8002 8.36698C23.8202 8.18683 23.8601 8.0267 23.8801 7.7865C24.0999 8.0267 24.06 8.20685 23.8002 8.36698Z" fill="#353431"/>
  <path d="M30.7544 9.28775C31.0741 9.60802 30.8743 10.0084 30.9143 10.3887C30.6345 10.0484 30.9342 9.62803 30.7544 9.28775Z" fill="#24201D"/>
  <path d="M26.8576 10.5288C27.1773 11.428 26.358 10.6087 26.2781 10.9085C26.4779 10.7886 26.6578 10.6487 26.8576 10.5288Z" fill="#B5B2AF"/>
  <path d="M21.1823 9.7281C21.1823 9.8482 21.2422 9.9683 21.1223 10.0684C21.0624 9.9683 20.9825 9.88823 20.9625 9.78815C20.9225 9.66805 20.9425 9.54795 20.9425 9.42785C21.1823 9.38781 21.0624 9.66805 21.1823 9.7281Z" fill="#6E6D6D"/>
  <path d="M29.5954 7.36583C29.6153 7.42578 29.5954 7.46575 29.5554 7.50572C29.3156 7.5257 29.1357 7.44577 28.9958 7.24594C29.2556 7.08607 29.4155 7.2859 29.5954 7.36583Z" fill="#7E7D7C"/>
  <path d="M26.5379 4.94357C26.398 4.94357 26.2581 4.92359 26.1382 4.92359C26.1382 4.82367 26.1382 4.72375 26.1582 4.60385C26.2981 4.7837 26.6178 4.68379 26.7377 4.92359C26.6578 4.94357 26.5979 4.94357 26.5379 4.94357Z" fill="#EBE9E6"/>
  <path d="M24.6195 9.88823C24.5595 9.82818 24.5196 9.76812 24.4596 9.70807C24.4396 9.56796 24.2798 9.48789 24.3597 9.32776C24.4396 9.38781 24.5395 9.42784 24.6195 9.48789C24.7594 9.60799 24.7394 9.74811 24.6195 9.88823Z" fill="#25211E"/>
  <path d="M28.2365 10.6483C28.1565 10.5084 28.0167 10.4884 27.8768 10.4484C28.0566 10.3085 28.2964 10.2086 28.4763 10.3485C28.5762 10.4284 28.3764 10.5883 28.2365 10.6483Z" fill="#2C2928"/>
  <path d="M24.6395 9.86749C24.6395 9.72761 24.6395 9.60771 24.6395 9.46782C24.6994 9.44784 24.7594 9.44784 24.8193 9.42786C24.8593 9.46782 24.8992 9.50779 24.9392 9.56774C24.9192 9.60771 24.9192 9.64767 24.9192 9.68764C24.8193 9.74759 24.7194 9.80754 24.6395 9.86749Z" fill="#383635"/>
  <path d="M27.9967 7.58622C28.0166 7.78605 27.8768 7.78605 27.7769 7.846C27.6969 7.88597 27.637 7.846 27.637 7.76607C27.617 7.6062 27.7769 7.58622 27.8568 7.52627C27.8568 7.50629 27.9367 7.56624 27.9967 7.58622Z" fill="#706F6E"/>
  <path d="M28.0766 6.58548C28.1365 6.64543 28.1765 6.6854 28.2364 6.74535C28.1165 6.88523 27.9167 7.10505 27.7968 6.94518C27.597 6.6854 27.9767 6.70538 28.0766 6.58548Z" fill="#575654"/>
  <path d="M19.244 6.44513C19.244 6.54505 19.184 6.605 19.0641 6.56503C18.9842 6.54505 18.9043 6.52506 18.8243 6.50508C18.8843 6.44513 18.9442 6.3652 19.0242 6.32523C19.1241 6.28526 19.224 6.32523 19.244 6.44513Z" fill="#575755"/>
  <path d="M27.9967 5.80484C28.1565 5.84481 28.3364 5.76487 28.4763 5.92474C28.2365 6.12457 28.0167 6.00467 27.7769 5.92474C27.8568 5.88477 27.9167 5.84481 27.9967 5.80484Z" fill="#E8E5E2"/>
  <path d="M21.9417 11.3492C21.9417 11.4092 21.9417 11.4691 21.9417 11.5091C21.7619 11.5291 21.642 11.4292 21.5021 11.3292C21.6619 11.1494 21.8018 11.2093 21.9417 11.3492Z" fill="#62605F"/>
  <path d="M21.1824 9.72809C21.1025 9.62801 21.0225 9.52793 20.9226 9.42784C20.9226 9.26771 21.0225 9.18764 21.1424 9.26771C21.3223 9.38781 21.2224 9.56796 21.1824 9.72809Z" fill="#3B3937"/>
  <path d="M27.4571 38.7923C28.856 38.8524 29.7752 39.9533 29.6952 41.4946C29.6353 42.8757 28.796 43.7565 27.597 43.7164C26.1582 43.6764 25.2789 42.6155 25.3389 40.9541C25.3988 39.613 26.2381 38.7323 27.4571 38.7923Z" fill="#403432"/>
  <path d="M27.6369 15.593C27.6969 15.593 27.7369 15.593 27.7968 15.593C27.8967 15.4929 27.9967 15.5129 28.0766 15.593C28.2964 15.7932 28.5362 15.9533 28.836 16.0133C29.4355 16.1335 29.8351 16.4938 30.0549 17.0542C30.2748 17.5546 30.1748 18.1151 30.3547 18.6155C30.3747 19.236 30.6345 19.7565 30.8743 20.337C30.4146 20.2569 30.3147 19.7765 30.035 19.4963C29.935 19.4162 29.8551 19.3361 29.8351 19.216C29.7352 19.3561 29.8551 19.5163 29.7752 19.6564C29.7552 19.6964 29.7352 19.7565 29.7152 19.7965C29.6353 19.8766 29.5554 19.8966 29.4754 19.7965C29.1757 19.196 28.6761 19.5363 28.2365 19.4963C28.2564 19.3361 28.1765 19.156 28.3763 19.0359C28.9559 18.6756 28.9159 18.3153 28.3364 17.9149C27.9367 17.6347 27.4171 17.8949 27.0574 17.5346C27.0774 17.5146 27.0974 17.4746 27.0974 17.4546C27.3172 17.2544 27.4371 16.9942 27.4371 16.6939C27.4571 16.5338 27.4171 16.3937 27.3572 16.2536C27.3172 16.1735 27.2972 16.0734 27.2773 15.9933C27.2972 15.7732 27.4571 15.6731 27.6369 15.593Z" fill="#201B17"/>
  <path d="M28.0766 15.593C27.9767 15.593 27.8768 15.593 27.7968 15.593C27.8768 15.0926 27.637 14.7923 27.1773 14.6322C27.1574 14.6322 27.1973 14.452 27.1973 14.372C27.4571 14.2118 27.617 14.372 27.7968 14.5321C28.1965 14.7923 27.9967 15.2327 28.0766 15.593Z" fill="#241F1C"/>
  <path d="M27.7968 14.5321C27.597 14.4721 27.3972 14.432 27.1973 14.372C27.2972 13.6113 27.6969 13.9316 28.0766 14.1318C28.1565 14.412 27.7968 14.2319 27.7968 14.432C27.7968 14.452 27.7968 14.4921 27.7968 14.5321Z" fill="#E4E3E2"/>
  <path d="M29.4155 14.5121C29.2956 14.3519 29.1757 14.1918 29.0358 14.0317C29.0958 13.9516 29.1757 13.8716 29.2756 13.8515C29.4755 13.8115 29.6153 13.8916 29.6953 14.0717C29.7153 14.1718 29.7552 14.2318 29.8551 14.2318C29.8352 14.5121 29.6553 14.5521 29.4155 14.5121Z" fill="#979594"/>
  <path d="M27.7969 14.4115C27.677 14.1117 28.0566 14.2916 28.0766 14.1117C28.3564 13.9718 28.3764 14.3115 28.5362 14.3515C28.2765 14.3715 28.0367 14.3915 27.7969 14.4115Z" fill="#363432"/>
  <path d="M31.2539 13.9316C31.3139 13.8716 31.3539 13.8315 31.4138 13.7715C31.5937 13.9116 31.5737 14.1118 31.6336 14.352C31.3139 14.332 31.214 14.1918 31.2539 13.9316Z" fill="#5E5D5C"/>
  <path d="M30.4546 14.2119C30.5146 14.2719 30.5745 14.332 30.6145 14.392C30.5745 14.5722 30.4746 14.6923 30.2548 14.7723C30.2148 14.5321 30.3347 14.372 30.4546 14.2119Z" fill="#5F5E5D"/>
  <path d="M13.109 39.5529C13.4687 40.4537 13.7685 41.1743 14.0682 41.8749C14.0882 41.9349 14.1082 42.015 14.1282 42.1151C13.4488 42.1151 12.7893 42.1151 12.0499 42.1151C12.3896 41.3144 12.7094 40.5137 13.109 39.5529Z" fill="#403432"/>
  <path d="M31.6536 19.6364C31.5737 19.6764 31.4738 19.7364 31.3939 19.7765C31.4338 19.256 31.274 18.6355 32.0733 18.5555C32.2132 18.5354 32.393 18.5354 32.413 18.7356C32.433 18.8957 32.2931 18.9558 32.1732 18.9558C31.7336 18.9958 31.6736 19.2961 31.6536 19.6364Z" fill="#EBEAE8"/>
  <path d="M31.5537 16.0334C31.7935 16.0334 32.0333 16.1134 31.9934 16.2736C31.8934 16.6339 31.4338 16.5738 31.194 16.814C31.1141 16.8941 30.9542 16.754 30.9542 16.6138C30.9942 16.2535 31.254 16.0934 31.5537 16.0334Z" fill="#EEEEEC"/>
  <path d="M31.9534 19.4762C31.9334 19.6564 31.9134 19.8365 31.9134 20.0167C31.7735 19.9967 31.7535 19.8766 31.7136 19.7565C31.8135 19.6764 31.7935 19.4962 31.9534 19.4762Z" fill="#605F5D"/>
  <path d="M29.7153 14.0717C29.5554 14.0317 29.4155 13.8916 29.2357 13.9717C28.8959 13.7114 29.1158 13.5513 29.3156 13.3712C29.3556 13.3712 29.3955 13.3511 29.4155 13.3511C29.9151 13.4312 29.6953 13.7915 29.7153 14.0717Z" fill="#D1CFCE"/>
  <path d="M28.9759 13.6113C28.3364 13.4712 29.0958 13.3111 28.9759 13.151C29.0758 13.1109 29.1757 13.0509 29.2756 13.0108C29.4355 12.9508 29.5754 12.8707 29.5754 13.151C29.4954 13.191 29.4155 13.211 29.4355 13.3311V13.3111C29.2756 13.4312 29.1557 13.5513 28.9759 13.6113Z" fill="#E9E7E5"/>
  <path d="M29.5753 13.1705C29.5154 13.0306 29.3755 13.0506 29.2756 13.0306C29.4954 12.8308 29.7352 12.8308 30.015 12.9507C29.915 13.1505 29.7352 13.1505 29.5753 13.1705Z" fill="#C3BFBC"/>
  <path d="M33.1324 25.181C32.9925 25.3411 32.8526 25.4812 32.7128 25.6414C32.6728 25.6013 32.6328 25.5413 32.5729 25.5013C32.5129 25.4212 32.8526 25.221 32.5129 25.221C32.3131 25.221 32.1332 25.3211 31.9334 25.3411C31.1341 25.3812 30.9143 25.0409 31.1541 24.2402C31.3539 24.9208 31.7136 25.181 32.1932 24.9808C32.4929 24.8407 32.6528 24.6005 32.6928 24.2802C32.7527 23.9199 32.5129 23.7598 32.2332 23.5997C31.6736 23.2794 31.6736 23.2794 31.5737 22.759C32.373 23.3795 33.7719 23.6397 33.1324 25.181Z" fill="#282421"/>
  <path d="M29.4554 19.7765C29.5354 19.7765 29.6153 19.7765 29.6952 19.7765C29.7752 20.8374 30.7743 20.7773 31.5137 21.1176C31.214 21.3378 31.0341 21.1176 30.8343 21.1176C29.5154 21.0776 29.5154 21.0576 29.4554 19.7765Z" fill="#332F2C"/>
  <path d="M31.0541 22.5188C30.7544 22.5388 30.5945 21.8582 30.3147 22.4787C30.2948 22.5388 29.955 22.3987 29.8351 22.2185C29.6953 21.9983 29.8551 21.8382 30.015 21.7181C30.2548 21.5179 30.5346 21.538 30.7943 21.6581C31.1141 21.8382 31.1141 22.1585 31.0541 22.5188Z" fill="#2D2926"/>
  <path d="M29.1757 23.9199C29.5754 23.7798 29.995 23.7598 30.2548 23.3394C30.3947 23.1193 30.6745 23.2394 30.7944 23.4796C30.9342 23.6997 30.7544 23.7598 30.5945 23.9199C30.1149 24.4203 29.6553 23.8399 29.1757 23.9199Z" fill="#312D2B"/>
  <path d="M33.0125 21.4379C33.1324 21.578 33.2323 21.7181 33.3522 21.8582C33.4321 22.0584 33.4521 22.1985 33.1723 22.1985C32.7327 21.8182 32.2531 21.8582 31.7735 22.1785C31.9733 21.7581 32.333 21.5379 32.7327 21.4178C32.8126 21.3978 32.9125 21.3778 33.0125 21.4379Z" fill="#292726"/>
  <path d="M29.1357 21.4379C28.836 21.3778 28.5762 21.3378 28.2165 21.2777C28.6162 20.9575 29.0158 20.6973 28.776 19.9767C29.1157 20.4771 29.1157 20.4771 29.1357 21.4379Z" fill="#363330"/>
  <path d="M29.7552 19.6363C29.5753 19.3361 29.5553 19.0559 29.8551 18.7356C29.915 19.0158 29.975 19.236 30.015 19.4762C29.935 19.5363 29.8551 19.5963 29.7552 19.6363Z" fill="#D0CDCB"/>
  <path d="M25.139 20.8171C25.139 20.7571 25.1191 20.7172 25.0791 20.6972C25.4188 20.6772 25.7386 20.7172 26.0783 20.6772C25.7985 20.937 25.4588 20.8371 25.139 20.8171Z" fill="#373635"/>
  <path d="M33.1524 22.1985C33.3123 22.1384 33.3123 21.9983 33.3323 21.8582C33.5721 22.1585 33.4921 22.4387 33.2323 22.7389C33.2124 22.5388 33.1724 22.3786 33.1524 22.1985Z" fill="#454342"/>
  <path d="M33.0125 21.4379C32.9126 21.4579 32.8127 21.598 32.7327 21.4179C32.7527 21.2777 32.6928 21.0576 32.8127 21.0576C32.9725 21.0576 33.0125 21.2777 33.0125 21.4379Z" fill="#34302D"/>
  <path d="M23.6004 12.1301C23.9001 11.5496 24.3397 11.0492 24.7594 10.5688C25.0991 10.2686 25.3189 10.3486 25.4388 10.769C25.5587 11.2294 25.5188 11.7498 25.8185 12.1701C25.8984 12.2902 25.8585 12.5104 25.6387 12.4704C24.9792 12.3303 25.3789 12.7907 25.3189 12.9908C25.3389 13.171 25.2989 13.3111 25.179 13.4312C25.1591 13.4512 25.1191 13.4712 25.0991 13.4912C24.6994 13.2911 24.2198 13.3511 23.8801 13.0509C23.7203 12.9708 23.6203 12.8107 23.5604 12.6305C23.5004 12.4704 23.4605 12.2902 23.6004 12.1301Z" fill="#F9F9F9"/>
  <path d="M23.6003 12.1301C23.6403 12.2902 23.7002 12.4504 23.7402 12.6105C23.6203 12.8107 23.7002 12.9908 23.7602 13.191C23.9201 13.5112 24.2997 13.4912 24.5395 13.6714C24.7194 13.8115 24.7594 14.0317 24.5995 14.1718C24.3197 14.392 24.3397 14.0117 24.1998 13.9316C24.1199 13.9116 24.04 13.8115 23.96 13.8916C23.94 13.9116 24.02 14.0117 24.04 14.0717C24.1998 14.3319 24.3197 14.6522 23.9001 14.6722C23.6003 14.6922 23.1007 14.7122 23.0208 14.2519C22.9209 13.6714 22.9209 13.0909 23.2806 12.5705C23.3006 12.3503 23.4005 12.2102 23.6003 12.1301Z" fill="#EFEEED"/>
  <path d="M25.7985 13.5313C25.9184 13.8515 26.0583 14.1918 25.8385 14.5321C25.9584 14.7323 25.9184 14.9324 25.8385 15.1526C25.4388 15.593 25.9584 15.9333 25.9784 16.3336C25.8984 16.4737 25.9784 16.7339 25.6786 16.6939C25.159 15.8132 24.9792 14.8724 25.219 13.8515C25.239 13.7515 25.139 13.6313 25.0991 13.5112H25.0791C25.3389 13.251 25.5787 13.3912 25.7985 13.5313Z" fill="#F3F2F2"/>
  <path d="M25.6786 16.6739C25.8785 16.6539 25.8585 16.4137 25.9784 16.3136C26.0183 16.3736 26.0783 16.4337 26.1183 16.4938C26.2581 16.9942 26.8177 17.1343 27.0375 17.5546V17.5346C26.4979 17.6547 26.0383 17.4345 25.5587 17.2544C25.4188 17.2744 25.4988 17.4946 25.3589 17.5146C25.179 17.2944 25.3389 17.0142 25.259 16.774C25.3989 16.7339 25.5387 16.6939 25.6786 16.6739Z" fill="#322D2A"/>
  <path d="M22.6811 15.5129C22.6012 14.9525 22.4813 14.5121 21.9017 14.3119C22.3813 14.0317 22.6012 14.2719 22.781 14.5321C22.9609 14.7923 23.1807 15.1126 22.6811 15.5129Z" fill="#E9E7E5"/>
  <path d="M23.2806 16.3736C23.2207 16.1935 23.1208 15.9933 23.4605 15.9933C23.7003 15.9933 23.9201 16.1935 23.8402 16.3536C23.7003 16.5938 23.8601 17.0542 23.5204 17.0542C23.1807 17.0542 23.2806 16.6539 23.2806 16.3736Z" fill="#F0F0EE"/>
  <path d="M24.0399 14.071C23.8601 13.9911 23.6203 14.0111 23.4804 13.7313C23.8001 13.5914 24.02 13.6314 24.1798 13.9312C24.1399 13.9911 24.0999 14.0311 24.0399 14.071Z" fill="#5C5B59"/>
  <path d="M20.6029 14.2314C20.5229 14.1514 20.463 14.0715 20.3831 13.9916C20.5429 13.8517 20.7428 14.0315 20.9026 13.9516C20.8027 14.0515 20.7028 14.1314 20.6029 14.2314Z" fill="#63615E"/>
  <path d="M23.7402 13.191C23.5404 13.0108 23.4205 12.8107 23.7202 12.6105C23.7602 12.7506 23.8201 12.8907 23.8601 13.0509C23.8201 13.0909 23.7802 13.1309 23.7402 13.191Z" fill="#3D3836"/>
  <path d="M25.9984 18.1351C26.2382 18.1351 26.478 18.1351 26.6978 18.1351C26.6978 18.1751 26.7178 18.235 26.7178 18.275C26.478 18.315 26.2382 18.3549 25.9984 18.4149C25.9984 18.3349 25.9984 18.235 25.9984 18.1351Z" fill="#2F2C2A"/>
  <path d="M20.9225 15.7331C21.0024 15.7331 21.0824 15.7331 21.1623 15.7331C21.1623 15.9733 21.1623 16.1935 21.1623 16.4337C21.0624 16.2135 20.8626 16.0134 20.9225 15.7331Z" fill="#52504E"/>
  <path d="M25.3389 17.5141C25.4788 17.4941 25.239 17.1544 25.5387 17.2543C25.5387 17.3942 25.5187 17.5341 25.5187 17.674C25.3988 17.694 25.3589 17.634 25.3389 17.5141Z" fill="#201B17"/>
  <path d="M27.9567 18.3351C27.7169 18.435 27.4971 18.5349 27.2573 18.6548C27.3572 18.2351 27.577 18.0753 27.9567 18.3351Z" fill="#373432"/>
  <path d="M27.0374 17.5546C27.0374 17.4345 26.9575 17.3745 26.8576 17.3745C26.1782 17.4345 26.0183 17.0742 26.1182 16.4937C26.2581 16.3937 26.1782 16.1134 26.4379 16.0934C26.5978 16.1935 26.7976 16.2135 26.9775 16.2135C27.2772 16.2335 27.4571 16.4337 27.6369 16.6539C27.577 17.0542 27.6769 17.5546 27.0374 17.5546Z" fill="#EDEDEC"/>
  <path d="M25.8384 15.1326C25.6586 14.9325 25.6986 14.7123 25.8384 14.5121C26.1981 14.352 26.1981 14.352 26.4779 13.8115C26.7777 14.5521 26.318 14.8524 25.8384 15.1326Z" fill="#D4D2D0"/>
  <path d="M27.637 15.593C27.5371 15.7331 27.4372 15.8532 27.3372 15.9933C27.1374 16.1735 27.0175 16.0333 26.8776 15.8932C26.9775 15.573 26.8976 15.2127 27.1574 14.8724C27.2373 15.1926 27.4172 15.4128 27.637 15.593Z" fill="#241F1C"/>
  <path d="M26.8776 15.8732C27.0375 15.9133 27.1773 15.9533 27.3372 15.9733C27.3772 16.0334 27.4371 16.0934 27.4771 16.1735C27.3372 16.4137 27.0574 16.1535 26.8776 16.3336C26.5978 16.4737 26.438 16.4137 26.418 16.0734C26.5778 16.0133 26.7377 15.9533 26.8776 15.8732Z" fill="#CAC8C6"/>
  <path d="M25.7985 13.5313C25.5587 13.5112 25.3189 13.5112 25.0791 13.4912C25.0591 13.271 25.199 13.1309 25.3189 12.9908C25.4188 13.231 25.7586 13.251 25.7985 13.5313Z" fill="#6A6969"/>
  <path d="M28.9758 13.6113C29.0957 13.4512 29.2156 13.3111 29.4354 13.3111C29.4354 13.5513 28.796 13.5913 29.2356 13.9716C29.1757 13.9917 29.1157 14.0117 29.0358 14.0317C29.0158 13.8916 28.9958 13.7515 28.9758 13.6113Z" fill="#2A2827"/>
  <path d="M26.8776 16.3336C27.0175 16.0734 27.2973 16.3136 27.4771 16.1735C27.5371 16.3336 27.6969 16.4537 27.617 16.6539C27.3772 16.5538 27.1374 16.4537 26.8776 16.3336Z" fill="#696867"/>
</svg>
